<svg xmlns="http://www.w3.org/2000/svg" viewBox="0 0 512 512" width="512" height="512">
  <rect width="512" height="512" fill="#3B6378"/>
  <g transform="translate(59.6 425) scale(0.241429 -0.241429) translate(-89 0)">
    <path fill="#F5F2EB" d="M424 737H1271V588H424ZM694 222Q694 197 707.0 181.5Q720 166 745 156L783 142Q835 122 835 68Q835 37 814.0 18.5Q793 0 749 0H175Q131 0 110.0 18.5Q89 37 89 68Q89 122 141 142L179 156Q205 166 217.5 181.5Q230 197 230 222V1178Q230 1203 217.5 1218.5Q205 1234 179 1244L141 1258Q89 1278 89 1332Q89 1364 110.0 1382.0Q131 1400 175 1400H749Q793 1400 814.0 1382.0Q835 1364 835 1332Q835 1278 783 1258L745 1244Q720 1234 707.0 1218.5Q694 1203 694 1178ZM1575 222Q1575 197 1588.0 181.5Q1601 166 1626 156L1664 142Q1716 122 1716 68Q1716 37 1695.0 18.5Q1674 0 1630 0H1056Q1012 0 991.0 18.5Q970 37 970 68Q970 122 1022 142L1060 156Q1086 166 1098.5 181.5Q1111 197 1111 222V1178Q1111 1203 1098.5 1218.5Q1086 1234 1060 1244L1022 1258Q970 1278 970 1332Q970 1364 991.0 1382.0Q1012 1400 1056 1400H1630Q1674 1400 1695.0 1382.0Q1716 1364 1716 1332Q1716 1278 1664 1258L1626 1244Q1601 1234 1588.0 1218.5Q1575 1203 1575 1178Z"/>
  </g>
</svg>
